<?xml version="1.0" standalone="no"?><!DOCTYPE svg PUBLIC "-//W3C//DTD SVG 1.1//EN" "http://www.w3.org/Graphics/SVG/1.1/DTD/svg11.dtd"><svg t="1587948575917" class="icon" viewBox="0 0 1024 1024" version="1.1" xmlns="http://www.w3.org/2000/svg" p-id="5979" xmlns:xlink="http://www.w3.org/1999/xlink" width="200" height="200"><defs><style type="text/css"></style></defs><path d="M678.49 271.961c-0.603-93.665-77.824-169.561-172.995-169.561-95.473 0-172.935 76.438-172.935 170.645v170.707h345.93v-171.79z m103.785 171.79h69.029c38.31 0 69.39 30.48 69.39 68.066V955.93a68.668 68.668 0 0 1-69.39 68.066H159.745a68.668 68.668 0 0 1-69.39-68.066V511.817c0-37.586 31.02-68.065 69.39-68.065h68.97V273.045C229.739 121.253 353.28 0 505.495 0c152.876 0 276.78 122.277 276.78 273.045v170.707z" p-id="5980" fill="#757575FF"></path></svg>