<?xml version="1.0" standalone="no"?><!DOCTYPE svg PUBLIC "-//W3C//DTD SVG 1.1//EN" "http://www.w3.org/Graphics/SVG/1.1/DTD/svg11.dtd"><svg t="1587948571908" class="icon" viewBox="0 0 1024 1024" version="1.1" xmlns="http://www.w3.org/2000/svg" p-id="5859" xmlns:xlink="http://www.w3.org/1999/xlink" width="200" height="200"><defs><style type="text/css"></style></defs><path d="M487.988 0c145.606 0 262.387 115.194 262.387 255.987S633.594 511.974 487.988 511.974 225.602 396.78 225.602 255.987 344.072 0 487.988 0z m0 0c145.606 0 262.387 115.194 262.387 255.987S633.594 511.974 487.988 511.974 225.602 396.78 225.602 255.987 344.072 0 487.988 0z m-97.582 596.757h219.176c185.591 0 337.596 148.78 337.596 331.197v20.786c0 72.035-152.005 75.209-339.183 75.209H390.406c-187.178 0-339.183 0-339.183-75.21v-20.785c0-182.417 152.005-331.197 339.183-331.197z" p-id="5860" fill="#757575FF"></path></svg>