<?xml version="1.0" standalone="no"?><!DOCTYPE svg PUBLIC "-//W3C//DTD SVG 1.1//EN" "http://www.w3.org/Graphics/SVG/1.1/DTD/svg11.dtd"><svg t="1587948557362" class="icon" viewBox="0 0 1024 1024" version="1.1" xmlns="http://www.w3.org/2000/svg" p-id="5739" xmlns:xlink="http://www.w3.org/1999/xlink" width="200" height="200"><defs><style type="text/css"></style></defs><path d="M896 149.333333c-187.733333 0-371.2-106.666667-371.2-106.666666-4.266667 0-8.533333-4.266667-12.8-4.266667-4.266667 0-8.533333 0-12.8 4.266667 0 0-192 106.666667-375.466667 106.666666-12.8 0-25.6 12.8-25.6 25.6V512c0 149.333333 72.533333 277.333333 204.8 371.2 98.133333 68.266667 196.266667 93.866667 200.533334 93.866667h8.533333c4.266667 0 102.4-25.6 200.533333-98.133334 132.266667-93.866667 200.533333-221.866667 200.533334-371.2V174.933333c8.533333-12.8-4.266667-25.6-17.066667-25.6zM746.666667 426.666667l-243.2 243.2c-8.533333 8.533333-17.066667 8.533333-25.6 8.533333-8.533333 0-17.066667-4.266667-25.6-8.533333l-149.333334-149.333334c-12.8-12.8-12.8-34.133333 0-46.933333 12.8-12.8 34.133333-12.8 46.933334 0l128 128 217.6-221.866667c12.8-12.8 34.133333-12.8 46.933333 0 17.066667 12.8 17.066667 34.133333 4.266667 46.933334z" p-id="5740" fill="#757575FF"></path></svg>